*General Informations*

Title: The Sorcerer's Apprentice 2010 720p BRRip H.264 AAC-TheFalcon007 (Kingdom-Release).mp4
Year: 2006
Runtime: 1:49:03
Language: English
Release Date: 20/11/2010

*File Informations*

Video: 3000 Kbps VBR H.264/AVC 23.376 FPS
Maximum video bitrate: 19.7 Mbps
Audio 01: AAC 48000Hz 448 kbPs 6 Channels VBR
Audio 02: AAC 48000Hz 128 kbPs 2 Channels VBR
Overall Bitrate: 3,577 Kbps VBR
Resolution: 1280 x 528
Aspect Ratio: 2.35 : 1
Subtitles: English
File Size: 2.72 GB (2,925,312,857 bytes)

*Movie Informations*

Genre: Action | Adventure | Comedy | Drama | Fantasy
IMDB Rating: 6.3/10 (13,606 votes)
IMDB URL: http://www.imdb.com/title/tt0963966/
Country: USA
Release Date: 14 July 2010 (USA)
Director: Jon Turteltaub

Cast:

Nicolas Cage    ...   Balthazar Blake
Jay Baruchel  ... Dave
Alfred Molina  ... Maxim Horvath
Teresa Palmer  ... Becky Barnes
Toby Kebbell  ... Drake Stone
Omar Benson Miller... Bennet
Monica Bellucci   ... Veronica
Alice Krige  ... Morgana le Fay
Jake Cherry  ... Young Dave
James A. Stephens ... Merlin
Gregory Woo  ... Sun-Lok
Wai Ching Ho  ... Chinese Woman
Jason R. Moore  ... Subway Mugger
Robert Capron  ... Young Dave's Pal (as Robert B. Capron)
Peyton List  ... Young Becky (as Peyton Roi List)

Awards: -
Plot Keywords: Sorcerer | Magic | Apprentice | New York City | Apthorp Apartment Building Manhattan New York City  
MPAA: Rated PG for fantasy action violence, some mild rude humor and brief language.
Company: Walt Disney Pictures

Plot: Balthazar Blake (Nicolas Cage) is a master sorcerer in modern-day Manhattan trying to defend the city from his arch-nemesis, Maxim Horvath (Alfred Molina). Balthazar can't do it alone, so he recruits Dave Stutler (Jay Baruchel), a seemingly average guy who demonstrates hidden potential, as his reluctant protégé. The sorcerer gives his unwilling accomplice a crash course in the art and science of magic, and together, these unlikely partners work to stop the forces of darkness. It'll take all the courage Dave can muster to survive his training, save the city and get the girl as he becomes The Sorcerer's Apprentice.

*CODEC Informations*

General
Complete name                    : The Sorcerer's Apprentice 2010 720p BRRip H.264 AAC-TheFalcon007 (Kingdom-Release).mp4
Format                           : MPEG-4
Format profile                   : Base Media
Codec ID                         : isom
File size                        : 2.72 GiB
Duration                         : 1h 49mn
Overall bit rate                 : 3 577 Kbps
Encoded date                     : UTC 2010-11-20 09:08:50
Tagged date                      : UTC 2010-11-20 09:08:50
Writing application              : Yamb 2.1.0.0

Video
ID                               : 1
Format                           : AVC
Format/Info                      : Advanced Video Codec
Format profile                   : High@L4.1
Format settings, CABAC           : Yes
Format settings, ReFrames        : 15 frames
Codec ID                         : avc1
Codec ID/Info                    : Advanced Video Coding
Duration                         : 1h 49mn
Bit rate mode                    : Variable
Bit rate                         : 3 000 Kbps
Maximum bit rate                 : 19.7 Mbps
Width                            : 1 280 pixels
Height                           : 528 pixels
Display aspect ratio             : 2.40:1
Frame rate mode                  : Constant
Frame rate                       : 23.976 fps
Color space                      : YUV
Chroma subsampling               : 4:2:0
Bit depth                        : 8 bits
Scan type                        : Progressive
Bits/(Pixel*Frame)               : 0.185
Stream size                      : 2.28 GiB (84%)
Writing library                  : x264 core 98 r1649 c54c47d
Encoding settings                : X
Encoded date                     : UTC 2010-11-19 19:47:55
Tagged date                      : UTC 2010-11-20 09:09:54

Audio #1
ID                               : 2
Format                           : AAC
Format/Info                      : Advanced Audio Codec
Format version                   : Version 4
Format profile                   : LC
Format settings, SBR             : No
Codec ID                         : 40
Duration                         : 1h 49mn
Bit rate mode                    : Variable
Bit rate                         : 445 Kbps
Maximum bit rate                 : 535 Kbps
Channel(s)                       : 6 channels
Channel positions                : Front: L C R, Side: L R, LFE
Sampling rate                    : 48.0 KHz
Stream size                      : 347 MiB (12%)
Encoded date                     : UTC 2010-11-20 09:09:38
Tagged date                      : UTC 2010-11-20 09:09:54

Audio #2
ID                               : 3
Format                           : AAC
Format/Info                      : Advanced Audio Codec
Format version                   : Version 4
Format profile                   : LC
Format settings, SBR             : No
Codec ID                         : 40
Duration                         : 1h 49mn
Bit rate mode                    : Variable
Bit rate                         : 128 Kbps
Maximum bit rate                 : 181 Kbps
Channel(s)                       : 2 channels
Channel positions                : Front: L R
Sampling rate                    : 48.0 KHz
Stream size                      : 99.7 MiB (4%)
Encoded date                     : UTC 2010-11-20 09:09:52
Tagged date                      : UTC 2010-11-20 09:09:54

Torrent HASH: 6C155C5F 80E98CC4 7BC4BBA5 288D70A0 85E68515

Compatible with PS3 and XBox360!

NOTE: Glad to see ya back around KB. Can't wait for ya to get back in action. Continuing the legacy of great quality, KiNGDOM releases... TAKE IT or LEAVE IT.
I am looking for some new sources cams,direct audio,dvd or vhs screeners, Dedicated Servers, TV Cappers, syncers or any thing else you can provide Contact us @ kingdom@hush.ai
Greets: KingBen, tiato, DiNGiE, Mazza, Richie, SecretMyth, BeLLBoY, IceBane, Deaftone and all of Kingdom & UKB, STG, IMAGiNE, The GRiM, KK, paulx1, HDLiTE, Ho's, Wrath, MnM-RG, ReleaseLounge RG and all others I Respect, you know who y'all are R.I.P. SecretMyth.
Thanks to SceneUnderground
Thanks SaM for help!